# xmcd
#
# Track frame offsets: 
#        150
#        20844
#        42248
#        59574
#        73941
#        85512
#        104250
#        118081
#        138609
#        168069
#        184754
#        201654
#        215953
#        228934
#
# Disc length: 3247 seconds
#
# Revision: 3
# Processed by: cddbd v1.5.2PL0 Copyright (c) Steve Scherf et al.
# Submitted via: ExactAudioCopy v0.95b4
#
DISCID=d60cad0e
DTITLE=Various Artist - Hot Hits Dancin' Country Vol. 9
DYEAR=1998
DGENRE=Country
TTITLE0=Sawyer Brown - Six Days On The Raod (Remix)
TTITLE1=Shania Twain - Love Gets Me Every Time (Remix)
TTITLE2=Collin Raye - On The Verge
TTITLE3=Wynonna - When Love Starts Talkin'
TTITLE4=Kevin Sharp - If You Love Somebody
TTITLE5=Lynyrd Skynyrd - Talked Myself Right Into It (Remix)
TTITLE6=Michael Peterson - Drink, Swear, Steal and Lie
TTITLE7=Lonestar - You Walked In
TTITLE8=Dolly Parton - Peace Train (Remix)
TTITLE9=Ed Pettersen and The High Line Riders - DWIOU
TTITLE10=The Tractors - The Last Time
TTITLE11=David Lee Murphy - Just Don't Wait Around 'Til She's Leavin' 
TTITLE11=(Remix)
TTITLE12=Lorrie Morgan - Go Away
TTITLE13=Bryan White - Love Is The Right Place
EXTD=
EXTT0=
EXTT1=
EXTT2=
EXTT3=
EXTT4=
EXTT5=
EXTT6=
EXTT7=
EXTT8=
EXTT9=
EXTT10=
EXTT11=
EXTT12=
EXTT13=
PLAYORDER=
